<svg id="visual" viewBox="0 0 960 540" width="960" height="540" xmlns="http://www.w3.org/2000/svg" xmlns:xlink="http://www.w3.org/1999/xlink" version="1.1"><rect x="0" y="0" width="960" height="540" fill="#ECF0F1"></rect><defs><linearGradient id="grad1_0" x1="43.8%" y1="100%" x2="100%" y2="0%"><stop offset="14.444444444444446%" stop-color="#ecf0f1" stop-opacity="1"></stop><stop offset="85.55555555555554%" stop-color="#ecf0f1" stop-opacity="1"></stop></linearGradient></defs><defs><linearGradient id="grad2_0" x1="0%" y1="100%" x2="56.3%" y2="0%"><stop offset="14.444444444444446%" stop-color="#ecf0f1" stop-opacity="1"></stop><stop offset="85.55555555555554%" stop-color="#ecf0f1" stop-opacity="1"></stop></linearGradient></defs><g transform="translate(960, 540)"><path d="M-108 0C-99.2 -7.7 -90.3 -15.4 -86.9 -23.3C-83.6 -31.2 -85.7 -39.4 -85.7 -49.5C-85.8 -59.6 -83.9 -71.8 -76.4 -76.4C-68.8 -80.9 -55.7 -77.9 -47 -81.4C-38.3 -84.9 -34 -94.9 -26.9 -100.5C-19.8 -106 -9.9 -107 0 -108L0 0Z" fill="#5782ac"></path></g><g transform="translate(0, 0)"><path d="M108 0C100.6 7.3 93.3 14.6 92.7 24.8C92.2 35 98.4 48.1 93.5 54C88.7 59.9 72.7 58.5 65.1 65.1C57.4 71.6 58.2 86 52.5 90.9C46.8 95.9 34.7 91.5 24.8 92.7C15 94 7.5 101 0 108L0 0Z" fill="#5782ac"></path></g></svg>